PathFileType	4	(X/Y/Z)	..\data\2014007\dynamic\2014007_C5_04.trc
DataRate	CameraRate	NumFrames	NumMarkers	Units	OrigDataRate	OrigDataStartFrame	OrigNumFrames
100.000000	100.000000	4	52	mm	100.000000	0	157
Frame#	Time	L_IAS			L_IPS			R_IPS			R_IAS			L_FTC			L_FLE			L_FME			L_FAX			L_TTC			L_FAL			L_TAM			L_FCC			L_FM1			L_FM2			L_FM5			R_FTC			R_FLE			R_FME			R_FAX			R_TTC			R_FAL			R_TAM			R_FCC			R_FM1			R_FM2			R_FM5			CV7			TV10			SXS			SJN			L_SIA			L_SRS			L_SAA			L_SAE			L_HLE			L_HME			L_UOA			L_RSP			L_UHE			L_HM2			L_HM5			R_SIA			R_SRS			R_SAA			R_SAE			R_HLE			R_HME			R_UOA			R_RSP			R_UHE			R_HM2			R_HM5			
		X1	Y1	Z1	X2	Y2	Z2	X3	Y3	Z3	X4	Y4	Z4	X5	Y5	Z5	X6	Y6	Z6	X7	Y7	Z7	X8	Y8	Z8	X9	Y9	Z9	X10	Y10	Z10	X11	Y11	Z11	X12	Y12	Z12	X13	Y13	Z13	X14	Y14	Z14	X15	Y15	Z15	X16	Y16	Z16	X17	Y17	Z17	X18	Y18	Z18	X19	Y19	Z19	X20	Y20	Z20	X21	Y21	Z21	X22	Y22	Z22	X23	Y23	Z23	X24	Y24	Z24	X25	Y25	Z25	X26	Y26	Z26	X27	Y27	Z27	X28	Y28	Z28	X29	Y29	Z29	X30	Y30	Z30	X31	Y31	Z31	X32	Y32	Z32	X33	Y33	Z33	X34	Y34	Z34	X35	Y35	Z35	X36	Y36	Z36	X37	Y37	Z37	X38	Y38	Z38	X39	Y39	Z39	X40	Y40	Z40	X41	Y41	Z41	X42	Y42	Z42	X43	Y43	Z43	X44	Y44	Z44	X45	Y45	Z45	X46	Y46	Z46	X47	Y47	Z47	X48	Y48	Z48	X49	Y49	Z49	X50	Y50	Z50	X51	Y51	Z51	X52	Y52	Z52	

1	0	-1224.15771484375	888.6658325195315	191.125030517578	-1426.830322265625	961.8109130859377	252.8538818359374	-1429.519409179688	974.3558349609377	332.3149414062499	-1246.491821289063	919.6812744140627	446.8551025390624	-1273.203002929688	857.568542480469	122.3193588256835	-1124.482055664063	468.7068176269532	175.0168151855468	-1130.324096679688	448.1405029296876	298.1459045410156	-1116.591674804688	405.1624145507814	170.8480224609374	-1063.696044921875	416.8912353515626	229.8331909179687	-990.1981201171877	80.29043579101564	194.645278930664	-974.6457519531252	109.1982955932617	273.0427246093749	-1014.142517089844	23.69307899475098	248.2216491699218	-847.055114746094	112.0287399291992	258.8471069335937	-854.2454833984377	121.4266052246094	209.9936523437499	-874.176208496094	86.5826873779297	170.7663269042968	-1324.523681640625	870.1888427734377	501.7393188476562	-1406.867553710938	462.1515197753907	435.5783996582031	-1421.088256835938	467.847137451172	303.2001647949218	-1449.225463867188	402.9974670410157	433.9247436523437	-1395.22021484375	383.7748107910157	377.9547424316405	-1566.795776367188	71.36311340332033	389.7032775878906	-1547.385864257813	92.01780700683595	305.3574829101561	-1623.137939453125	42.12871170043946	336.3855590820311	-1435.74609375	26.40340423583985	314.9969787597655	-1426.745971679688	40.59548568725587	366.9358825683593	-1470.199462890625	26.19785690307618	415.6436462402343	-1381.100708007813	1413.715942382813	284.7028503417968	-1434.216064453125	1175.871704101563	299.4139099121093	-1181.312622070313	1160.076416015625	284.683380126953	-1257.927856445313	1331.220703125	277.496368408203	-1453.616821289063	1190.111328125	211.1288146972655	-1428.027465820313	1330.37890625	208.4048614501952	-1404.563720703125	1333.14697265625	135.9467010498045	-1357.321655273438	1336.786987304688	102.4780349731444	-1464.50048828125	1033.405395507813	72.26058197021467	-1468.756713867188	1026.5849609375	152.5630035400389	-1491.645263671875	1029.079223632813	106.9614334106444	-1456.176879882813	776.575866699219	85.98034667968733	-1510.39453125	797.5887451171877	34.83352279663068	-1467.979736328125	682.0812988281251	75.33010864257795	-1554.511962890625	725.2564086914064	44.58021926879864	-1443.62939453125	1204.686889648438	399.7333374023437	-1419.063232421875	1333.017211914063	390.0285644531249	-1367.889892578125	1357.373168945313	451.9842224121093	-1322.883422851563	1362.982543945313	467.8623352050781	-1282.583374023438	1059.205810546875	583.9735717773438	-1332.521240234375	1031.90185546875	518.1392211914062	-1317.151123046875	1016.540222167969	568.6160888671875	-1099.367065429688	880.3875122070315	515.878662109375	-1130.59033203125	860.8919677734377	585.5733642578125	-1040.015380859375	823.647644042969	509.6077880859375	-1093.781005859375	794.3231201171877	587.8991088867188	
2	0.01	-1209.835815429688	885.6300048828127	190.5903167724608	-1412.789916992188	958.6829223632815	251.3518524169921	-1415.56298828125	971.3579101562502	330.7391662597655	-1232.828491210938	917.3237304687502	446.6052246093749	-1258.491577148438	854.406188964844	121.7028350830077	-1105.734985351563	468.2864685058595	174.7706604003905	-1112.052978515625	447.602752685547	297.7652587890624	-1097.757202148438	404.6157226562501	170.5352935791014	-1045.470581054688	416.2749938964845	229.8727264404296	-972.857849121094	79.8036575317383	194.3378601074218	-957.8520507812502	108.3640670776367	273.0183715820312	-997.4951782226565	23.27984046936036	247.4976959228515	-830.168640136719	110.906478881836	259.2251281738281	-837.2107543945315	120.5008316040039	210.478042602539	-857.061462402344	85.88632202148439	171.2297821044921	-1311.601440429688	868.1257324218752	501.1927490234374	-1398.427734375	461.2969055175782	435.7915039062499	-1411.427856445313	466.8346557617189	303.2923889160155	-1441.678833007813	402.7316894531251	434.0075378417968	-1387.913696289063	382.2901306152344	378.2582397460936	-1565.9287109375	73.14398193359376	390.2512512207031	-1546.300415039063	93.52112579345705	305.859405517578	-1623.004516601563	44.96773529052735	336.958282470703	-1435.4794921875	26.52583503723145	315.2088012695311	-1426.386962890625	40.68014907836915	367.1581420898436	-1470.0888671875	26.11054992675782	415.7398986816406	-1367.619995117188	1410.858764648438	283.1881713867186	-1420.48876953125	1173.00537109375	297.9741210937499	-1167.704223632813	1157.099731445313	283.7935791015624	-1244.318115234375	1328.432861328125	276.1812744140624	-1440.037963867188	1187.14794921875	209.7193145751952	-1414.382568359375	1327.462036132813	206.8501739501952	-1390.86962890625	1330.324951171875	134.4451446533202	-1343.49169921875	1333.8525390625	101.0534057617186	-1453.383544921875	1031.633911132813	71.61157226562483	-1457.42626953125	1025.022094726563	151.9371337890624	-1480.587890625	1028.007446289063	106.3383255004881	-1450.473999023438	774.9258422851565	85.62193298339828	-1504.105712890625	797.0606079101565	34.33924865722638	-1465.364135742188	680.6135864257814	76.1033630371092	-1550.373291015625	726.1448364257814	44.54914855957013	-1430.115600585938	1201.651733398438	398.0023498535156	-1405.747192382813	1330.16357421875	388.4840698242187	-1354.6962890625	1354.499267578125	450.5712890624999	-1309.658935546875	1360.187133789063	466.5237731933593	-1268.984497070313	1056.48974609375	582.6793212890625	-1318.901245117188	1028.996215820313	516.9188232421875	-1303.503662109375	1013.704650878906	567.3050537109375	-1085.181884765625	878.5312500000002	514.308349609375	-1116.147094726563	858.9126586914065	584.0696411132812	-1025.541870117188	822.1209106445315	508.0217590332031	-1079.012084960938	792.565124511719	586.4059448242188	
3	0.02	-1195.306396484375	883.067321777344	189.9247894287108	-1398.57861328125	955.811706542969	250.0144500732421	-1401.306396484375	968.5430297851565	329.3145446777343	-1218.790405273438	915.0977783203127	446.2030029296874	-1243.749755859375	851.7028808593752	120.9748458862303	-1086.566040039063	468.2244567871095	174.5128326416014	-1093.121826171875	447.5908813476564	297.3164062499999	-1078.828857421875	404.293670654297	170.259307861328	-1027.184204101563	415.5214843750001	229.9436645507812	-958.3953857421877	78.74571990966798	194.2941131591796	-943.8822021484377	106.7872314453125	273.3382568359374	-984.3667602539065	22.70329666137696	246.9655303955078	-816.113464355469	107.734130859375	259.9855346679687	-822.9267578125002	117.6669082641602	211.3627166748046	-842.9912109375002	83.58148193359376	172.0873107910155	-1298.27001953125	866.109069824219	500.5896911621093	-1389.605590820313	460.5705871582032	436.0079040527343	-1401.404541015625	465.8768920898439	303.3774108886718	-1433.800903320313	402.6365051269532	434.0916748046874	-1380.274047851563	380.8978576660157	378.5694580078124	-1564.9296875	75.25647735595705	390.9084777832031	-1545.052001953125	95.3259963989258	306.4903869628905	-1622.77001953125	48.32917404174806	337.634307861328	-1435.280151367188	26.55850791931153	315.3934936523436	-1426.071044921875	40.70568084716798	367.3523559570311	-1469.997192382813	25.97786331176759	415.8133850097656	-1354.092529296875	1408.1943359375	281.5939331054686	-1406.629028320313	1170.31591796875	296.561798095703	-1153.995239257813	1154.445556640625	282.6802062988281	-1230.635986328125	1325.87451171875	274.7344360351561	-1426.30810546875	1184.340454101563	208.2827758789061	-1400.681030273438	1324.692260742188	205.2331542968749	-1377.142822265625	1327.641357421875	132.8696899414061	-1329.643920898438	1331.095458984375	99.5389480590819	-1441.876708984375	1029.922607421875	70.74600982666	-1445.750122070313	1023.487976074219	151.0968933105467	-1469.1455078125	1026.903930664063	105.5023193359373	-1443.784790039063	773.422546386719	85.09164428710922	-1496.751586914063	796.5278930664065	33.57347106933576	-1461.59814453125	679.3888549804689	76.83750152587874	-1545.031494140625	727.0244140625001	44.22274017333966	-1416.493286132813	1198.79931640625	396.2377014160156	-1392.329467773438	1327.485961914063	386.8462219238281	-1341.403686523438	1351.810913085938	449.0546264648437	-1296.343139648438	1357.572265625	465.0913391113281	-1255.636840820313	1053.880615234375	581.2506103515625	-1305.484252929688	1026.275390625	515.498779296875	-1290.139282226563	1011.038513183594	565.8160400390625	-1071.436645507813	876.476989746094	512.8242797851562	-1102.310424804688	856.7520751953127	582.5886840820312	-1011.591674804688	820.3007812500002	506.5910339355469	-1064.943359375	790.5603027343752	584.9560546875	
4	0.03	-1180.552856445313	881.0340576171877	189.1102752685546	-1384.178466796875	953.2521972656252	248.8423461914061	-1386.746704101563	965.9581298828127	328.0486450195311	-1204.370849609375	912.9942626953127	445.6376953124999	-1228.943603515625	849.524841308594	120.1196899414061	-1067.178588867188	468.4554138183595	174.2493896484374	-1073.787109375	448.0325927734376	296.8185424804687	-1059.942993164063	404.1698608398439	170.0238647460936	-1008.967834472656	414.6580810546876	230.0604248046874	-946.5194091796877	77.20937347412111	194.4802551269531	-932.441345214844	104.5792312622071	273.9537353515624	-974.389587402344	22.02377128601075	246.6057739257812	-804.600524902344	102.7209930419922	261.0778808593749	-811.0908203125002	113.113265991211	212.5822143554687	-831.6512451171877	79.83779144287111	173.2615814208984	-1284.498657226563	864.1546020507815	499.9184570312499	-1380.267578125	459.965301513672	436.2207641601562	-1390.902587890625	464.9529418945314	303.4648132324218	-1425.471801757813	402.7094116210939	434.1784667968749	-1372.184204101563	379.5860290527344	378.8932189941405	-1563.73779296875	77.7562942504883	391.6532592773437	-1543.544311523438	97.4732360839844	307.2384338378905	-1622.334350585938	52.31456756591798	338.3820495605468	-1435.199462890625	26.47609329223634	315.5233154296874	-1425.844116210938	40.63961791992188	367.4807739257811	-1469.944946289063	25.8172779083252	415.8321228027343	-1340.517211914063	1405.770385742188	279.9263305664061	-1392.631225585938	1167.845092773438	295.1857604980468	-1140.162353515625	1152.167236328125	281.3532104492187	-1216.882446289063	1323.600952148438	273.1652832031249	-1412.40673828125	1181.71337890625	206.8451232910155	-1386.92578125	1322.108276367188	203.5762329101561	-1363.391357421875	1325.129028320313	131.2393341064452	-1315.791381835938	1328.555297851563	97.94753265380847	-1429.974975585938	1028.294799804688	69.67070770263656	-1433.7294921875	1022.004150390625	150.0448913574217	-1457.311279296875	1025.787475585938	104.4603729248045	-1436.054809570313	772.0562744140627	84.37612152099594	-1488.307250976563	795.9727783203127	32.53780746459943	-1456.588012695313	678.3737792968751	77.47639465332014	-1538.438232421875	727.8437500000001	43.59158325195294	-1402.75048828125	1196.177368164063	394.4540710449218	-1378.808959960938	1325.032104492188	385.1251831054687	-1328.010986328125	1349.36279296875	447.4429016113281	-1282.93798828125	1355.193481445313	463.5734863281249	-1242.535400390625	1051.430908203125	579.6876220703125	-1292.269165039063	1023.794555664063	513.876220703125	-1277.053833007813	1008.596374511719	564.1480712890625	-1058.143676757813	874.2459716796877	511.4253845214844	-1089.09765625	854.437927246094	581.1309814453125	-998.1879272460941	818.1956787109377	505.3135375976562	-1051.6025390625	788.3298339843752	583.55078125	
